<svg width="24" height="24" viewBox="0 0 24 24" fill="none" xmlns="http://www.w3.org/2000/svg">
<path d="M15.5 6.5C15.5 5.66 17 4 17 4C17 4 18.5 5.66 18.5 6.5C18.5 7.33 17.83 8 17 8C16.17 8 15.5 7.33 15.5 6.5ZM19.5 15C20.163 15 20.7989 14.7366 21.2678 14.2678C21.7366 13.7989 22 13.163 22 12.5C22 10.83 19.5 8 19.5 8C19.5 8 17 10.83 17 12.5C17 13.163 17.2634 13.7989 17.7322 14.2678C18.2011 14.7366 18.837 15 19.5 15ZM16 12V22H4V12C4 9.03 6.16 6.57 9 6.09V4H7V2H13C14.13 2 15.15 2.39 16 3L14.56 4.44C14.1 4.17 13.57 4 13 4H11V6.09C13.84 6.57 16 9.03 16 12Z" fill="#6A5CE6"/>
</svg>
