<svg width="3902" height="2599" viewBox="0 0 3902 2599" fill="none" xmlns="http://www.w3.org/2000/svg">
<path opacity="0.2" d="M2019 125C3021.95 125 3835 898.428 3835 1852.5C3835 1937.24 3828.58 2020.56 3816.19 2102.04C3304.49 2291.93 2685.42 2403 2018.5 2403C1352.04 2403 733.368 2292.08 221.868 2102.43C209.437 2020.83 203 1937.38 203 1852.5C203 898.428 1016.05 125 2019 125Z" fill="#FFE159"/>
<circle cx="3703" cy="974.512" r="35" stroke="#FFD723" stroke-width="30"/>
<circle cx="203" cy="1213.51" r="35" stroke="#FFD723" stroke-width="30"/>
<circle cx="942" cy="701.512" r="80" stroke="#FFD723" stroke-width="60"/>
<circle cx="3587" cy="1077.51" r="15" stroke="#FFD723" stroke-width="20"/>
<circle cx="25" cy="1024.51" r="15" stroke="#FFD723" stroke-width="20"/>
<rect x="858.621" y="974.512" width="2364" height="1200" rx="100" fill="#6A5CE6"/>
<path fill-rule="evenodd" clip-rule="evenodd" d="M3044.69 601.801C3039.7 588.082 3020.3 588.082 3015.31 601.801L2992.63 664.142L2930.29 686.818C2916.57 691.816 2916.57 711.208 2930.29 716.205L2992.63 738.882L3015.31 801.222C3020.3 814.941 3039.7 814.941 3044.69 801.222L3067.37 738.882L3129.71 716.205C3143.43 711.208 3143.43 691.816 3129.71 686.818L3067.37 664.142L3044.69 601.801Z" fill="#FFD723"/>
<path fill-rule="evenodd" clip-rule="evenodd" d="M3415.19 1037.51C3411.21 1020.18 3395.79 1020.18 3391.81 1037.51L3373.77 1116.29L3324.18 1144.94C3313.27 1151.26 3313.27 1175.76 3324.18 1182.08L3373.77 1210.73L3391.81 1289.51C3395.79 1306.85 3411.21 1306.85 3415.19 1289.51L3433.23 1210.73L3482.82 1182.08C3493.73 1175.76 3493.73 1151.26 3482.82 1144.94L3433.23 1116.29L3415.19 1037.51Z" fill="#FFD723"/>
<path d="M2030.62 1484.51L922.975 975.262H3138.27L2030.62 1484.51Z" fill="#9589F0"/>
<path fill-rule="evenodd" clip-rule="evenodd" d="M506.358 1054.87C501.815 1042.39 484.185 1042.39 479.642 1054.87L459.027 1111.54L402.354 1132.15C389.882 1136.7 389.882 1154.33 402.354 1158.87L459.027 1179.48L479.642 1236.16C484.185 1248.63 501.815 1248.63 506.358 1236.16L526.973 1179.48L583.646 1158.87C596.118 1154.33 596.118 1136.7 583.646 1132.15L526.973 1111.54L506.358 1054.87Z" fill="#FFD723"/>
<path fill-rule="evenodd" clip-rule="evenodd" d="M2970.36 1540.35C2965.81 1527.88 2948.19 1527.88 2943.64 1540.35L2923.03 1597.03L2866.35 1617.64C2853.88 1622.19 2853.88 1639.81 2866.35 1644.36L2923.03 1664.97L2943.64 1721.65C2948.19 1734.12 2965.81 1734.12 2970.36 1721.65L2990.97 1664.97L3047.65 1644.36C3060.12 1639.81 3060.12 1622.19 3047.65 1617.64L2990.97 1597.03L2970.36 1540.35Z" fill="#EAE8FC"/>
<path fill-rule="evenodd" clip-rule="evenodd" d="M1165.36 1023.35C1160.81 1010.88 1143.19 1010.88 1138.64 1023.35L1118.03 1080.03L1061.35 1100.64C1048.88 1105.19 1048.88 1122.81 1061.35 1127.36L1118.03 1147.97L1138.64 1204.65C1143.19 1217.12 1160.81 1217.12 1165.36 1204.65L1185.97 1147.97L1242.65 1127.36C1255.12 1122.81 1255.12 1105.19 1242.65 1100.64L1185.97 1080.03L1165.36 1023.35Z" fill="#EAE8FC"/>
<ellipse cx="2063.5" cy="2382.5" rx="1204.5" ry="114.5" fill="#FFEA8C"/>
<path d="M2026.5 589.512C2254.33 589.512 2459.65 604.931 2607.17 629.532C2681.25 641.886 2738.88 656.257 2777.06 671.313C2792.79 677.513 2803.67 683.241 2810.68 688.012C2803.67 692.782 2792.79 698.51 2777.06 704.71C2738.88 719.767 2681.25 734.137 2607.17 746.491C2459.65 771.093 2254.33 786.512 2026.5 786.512C1798.67 786.512 1593.35 771.093 1445.83 746.491C1371.75 734.137 1314.12 719.767 1275.94 704.71C1260.21 698.51 1249.33 692.782 1242.32 688.012C1249.33 683.241 1260.21 677.513 1275.94 671.313C1314.12 656.257 1371.75 641.886 1445.83 629.532C1593.35 604.931 1798.67 589.512 2026.5 589.512Z" stroke="#B8D4F8" stroke-width="80"/>
<rect x="153" y="1459.96" width="516" height="139" rx="69.5" transform="rotate(-10 153 1459.96)" fill="#B8D4F8"/>
<rect x="267.69" y="1556.25" width="434" height="139" rx="69.5" transform="rotate(-20 267.69 1556.25)" fill="#B8D4F8"/>
<rect x="402.168" y="1617.65" width="343" height="114" rx="57" transform="rotate(-20 402.168 1617.65)" fill="#B8D4F8"/>
<ellipse cx="641.819" cy="1534.21" rx="165.5" ry="158" transform="rotate(-10 641.819 1534.21)" fill="#B8D4F8"/>
<path d="M733 1520.51L733 1527.01C732.996 1551.14 723.407 1574.28 706.342 1591.35C689.276 1608.41 666.132 1618 642 1618L635.506 1618C624.409 1618 613.421 1615.82 603.168 1611.57C592.915 1607.33 583.599 1601.1 575.752 1593.26C567.905 1585.41 561.68 1576.09 557.433 1565.84C553.186 1555.59 551 1544.6 551 1533.5L551 1524.25C551.004 1504.29 558.934 1485.15 573.048 1471.04C587.161 1456.93 606.301 1449 626.258 1449C644.222 1449 661.451 1456.14 674.154 1468.84C686.857 1481.55 693.994 1498.78 693.994 1516.74L693.994 1522.99C693.994 1537.85 688.095 1552.09 677.596 1562.59C667.096 1573.1 652.855 1579 638.004 1579L635.506 1579C623.441 1579 611.872 1574.2 603.341 1565.67C594.81 1557.14 590.014 1545.57 590.006 1533.5L590.006 1527.01C590.006 1516.66 594.114 1506.74 601.426 1499.43C608.738 1492.11 618.655 1488 628.998 1488C643.356 1488 655.002 1499.64 655.002 1514L655.002 1517.71C655.002 1530.02 645.011 1540.01 632.709 1540.01L628.998 1540.01" stroke="white" stroke-width="20" stroke-linecap="round" stroke-linejoin="round"/>
<rect width="516" height="139" rx="69.5" transform="matrix(-0.984808 -0.173648 -0.173648 0.984808 3901.86 1459.61)" fill="#B8D4F8"/>
<rect width="434" height="139" rx="69.5" transform="matrix(-0.939693 -0.34202 -0.34202 0.939693 3787.17 1555.89)" fill="#B8D4F8"/>
<rect width="343" height="114" rx="57" transform="matrix(-0.939693 -0.34202 -0.34202 0.939693 3652.69 1617.3)" fill="#B8D4F8"/>
<ellipse cx="165.5" cy="158" rx="165.5" ry="158" transform="matrix(-0.984808 -0.173648 -0.173648 0.984808 3603.46 1406.99)" fill="#B8D4F8"/>
<path d="M3321.86 1520.16L3321.86 1526.65C3321.87 1550.78 3331.45 1573.93 3348.52 1590.99C3365.59 1608.06 3388.73 1617.64 3412.86 1617.64L3419.36 1617.64C3430.45 1617.65 3441.44 1615.46 3451.69 1611.22C3461.95 1606.97 3471.26 1600.75 3479.11 1592.9C3486.96 1585.05 3493.18 1575.74 3497.43 1565.48C3501.68 1555.23 3503.86 1544.24 3503.86 1533.14L3503.86 1523.9C3503.86 1503.94 3495.93 1484.8 3481.81 1470.68C3467.7 1456.57 3448.56 1448.64 3428.6 1448.64C3410.64 1448.64 3393.41 1455.78 3380.71 1468.49C3368 1481.19 3360.87 1498.42 3360.87 1516.39L3360.87 1522.64C3360.87 1537.49 3366.77 1551.74 3377.27 1562.24C3387.77 1572.74 3402.01 1578.65 3416.86 1578.65L3419.36 1578.65C3431.42 1578.64 3442.99 1573.84 3451.52 1565.31C3460.05 1556.78 3464.85 1545.21 3464.86 1533.14L3464.86 1526.65C3464.86 1516.31 3460.75 1506.39 3453.44 1499.07C3446.12 1491.76 3436.21 1487.64 3425.86 1487.64C3411.51 1487.64 3399.86 1499.29 3399.86 1513.65L3399.86 1517.36C3399.86 1529.66 3409.85 1539.65 3422.15 1539.65L3425.86 1539.65" stroke="white" stroke-width="20" stroke-linecap="round" stroke-linejoin="round"/>
<rect width="102" height="955" rx="51" transform="matrix(-0.866025 -0.5 -0.5 0.866025 3764.83 97.5117)" fill="#FFED9D"/>
<rect x="75" y="527.078" width="102" height="579.612" rx="51" transform="rotate(-40 75 527.078)" fill="#FFED9D"/>
<rect width="102" height="579.612" rx="51" transform="matrix(-0.766044 -0.642788 -0.642788 0.766044 3854.7 527.078)" fill="#FFED9D"/>
<rect x="471.506" y="34.8867" width="102" height="579.612" rx="51" transform="rotate(-20 471.506 34.8867)" fill="#FFED9D"/>
<rect width="102" height="579.612" rx="51" transform="matrix(-0.939693 -0.34202 -0.34202 0.939693 3434.09 46.3984)" fill="#FFED9D"/>
<path fill-rule="evenodd" clip-rule="evenodd" d="M1978.33 1443.67C1978.33 1427.05 1984.94 1411.11 1996.69 1399.35C2008.44 1387.6 2024.38 1381 2041 1381C2057.62 1381 2073.56 1387.6 2085.31 1399.35C2097.06 1411.11 2103.67 1427.05 2103.67 1443.67H2114.11C2119.65 1443.67 2124.96 1445.87 2128.88 1449.78C2132.8 1453.7 2135 1459.02 2135 1464.56V1569C2135 1574.54 2132.8 1579.85 2128.88 1583.77C2124.96 1587.69 2119.65 1589.89 2114.11 1589.89H1967.89C1962.35 1589.89 1957.04 1587.69 1953.12 1583.77C1949.2 1579.85 1947 1574.54 1947 1569V1464.56C1947 1459.02 1949.2 1453.7 1953.12 1449.78C1957.04 1445.87 1962.35 1443.67 1967.89 1443.67H1978.33ZM2041 1401.89C2052.08 1401.89 2062.71 1406.29 2070.54 1414.13C2078.38 1421.96 2082.78 1432.59 2082.78 1443.67H1999.22C1999.22 1432.59 2003.62 1421.96 2011.46 1414.13C2019.29 1406.29 2029.92 1401.89 2041 1401.89ZM2061.89 1506.33C2061.89 1510 2060.92 1513.6 2059.09 1516.78C2057.26 1519.95 2054.62 1522.59 2051.44 1524.42V1537.67C2051.44 1540.44 2050.34 1543.09 2048.39 1545.05C2046.43 1547.01 2043.77 1548.11 2041 1548.11C2038.23 1548.11 2035.57 1547.01 2033.61 1545.05C2031.66 1543.09 2030.56 1540.44 2030.56 1537.67V1524.42C2026.57 1522.12 2023.46 1518.57 2021.7 1514.33C2019.94 1510.08 2019.63 1505.37 2020.82 1500.93C2022.01 1496.49 2024.64 1492.56 2028.28 1489.76C2031.93 1486.96 2036.4 1485.44 2041 1485.44C2046.54 1485.44 2051.85 1487.65 2055.77 1491.56C2059.69 1495.48 2061.89 1500.79 2061.89 1506.33Z" fill="#FFED9D"/>
<path fill-rule="evenodd" clip-rule="evenodd" d="M2255.36 1692.35C2250.81 1679.88 2233.19 1679.88 2228.64 1692.35L2208.03 1749.03L2151.35 1769.64C2138.88 1774.19 2138.88 1791.81 2151.35 1796.36L2208.03 1816.97L2228.64 1873.65C2233.19 1886.12 2250.81 1886.12 2255.36 1873.65L2275.97 1816.97L2332.65 1796.36C2345.12 1791.81 2345.12 1774.19 2332.65 1769.64L2275.97 1749.03L2255.36 1692.35Z" fill="#FFD723"/>
<path fill-rule="evenodd" clip-rule="evenodd" d="M1853.36 1692.35C1848.81 1679.88 1831.19 1679.88 1826.64 1692.35L1806.03 1749.03L1749.35 1769.64C1736.88 1774.19 1736.88 1791.81 1749.35 1796.36L1806.03 1816.97L1826.64 1873.65C1831.19 1886.12 1848.81 1886.12 1853.36 1873.65L1873.97 1816.97L1930.65 1796.36C1943.12 1791.81 1943.12 1774.19 1930.65 1769.64L1873.97 1749.03L1853.36 1692.35Z" fill="#FFD723"/>
<ellipse cx="2044.5" cy="1971.5" rx="34.5" ry="32.5" fill="#FFD723"/>
<path d="M3139.5 2599C3044.37 2575.05 2965.83 2520.48 2903.88 2435.29C2841.93 2350.1 2810.97 2255.52 2811 2151.56V1901.15L3139.5 1778L3468 1901.15V2151.56C3468 2255.55 3437.04 2350.14 3375.12 2435.33C3313.19 2520.53 3234.66 2575.08 3139.5 2599Z" fill="#FFD723"/>
<path d="M3401 1957.89V2157.95C3401 2242.14 3376.02 2318.56 3325.83 2387.63C3276.51 2455.5 3214.64 2498.87 3140 2518.51C3065.39 2498.84 3003.52 2455.47 2954.17 2387.59C2903.96 2318.52 2878.98 2242.12 2879 2157.95V1957.89L3140 1860.02L3401 1957.89Z" stroke="#FFB347" stroke-width="30"/>
<path fill-rule="evenodd" clip-rule="evenodd" d="M3227.47 2166.7C3213.56 2166.72 3199.92 2162.89 3188.06 2155.64C3194.58 2166.9 3202.9 2181.72 3211.23 2197.81C3220.18 2215.11 3229.18 2233.94 3235.93 2251.41C3242.65 2268.75 3247.35 2285.2 3247.35 2297.57C3247.35 2333.62 3226.19 2351.95 3214.26 2359.36C3207.84 2363.36 3200.42 2359.55 3198.34 2353.18C3190.9 2330.44 3168.07 2262.59 3140 2196.6C3111.93 2262.59 3089.11 2330.44 3081.67 2353.18C3079.58 2359.55 3072.17 2363.36 3065.75 2359.36C3053.82 2351.95 3032.66 2333.62 3032.66 2297.57C3032.66 2285.2 3037.36 2268.75 3044.07 2251.41C3050.83 2233.94 3059.83 2215.11 3068.78 2197.81C3076.17 2183.58 3083.9 2169.52 3091.95 2155.64C3079.42 2163.29 3064.92 2167.12 3050.23 2166.67C3035.54 2166.22 3021.3 2161.51 3009.26 2153.11C2997.22 2144.72 2987.89 2133 2982.42 2119.39C2976.96 2105.79 2975.59 2090.89 2978.48 2076.52C2981.38 2062.15 2988.41 2048.93 2998.72 2038.49C3009.03 2028.04 3022.17 2020.83 3036.53 2017.72C3050.89 2014.62 3065.85 2015.75 3079.57 2021C3093.3 2026.24 3105.19 2035.37 3113.79 2047.25C3120.87 2055.93 3129.97 2069.46 3140 2085.72C3150.02 2069.46 3159.12 2055.93 3166.21 2047.25C3173.78 2036.79 3183.91 2028.44 3195.64 2023.01C3207.37 2017.57 3220.31 2015.24 3233.21 2016.22C3246.1 2017.2 3258.53 2021.47 3269.3 2028.61C3280.07 2035.76 3288.82 2045.54 3294.71 2057.03C3300.6 2068.52 3303.44 2081.32 3302.95 2094.21C3302.45 2107.1 3298.65 2119.65 3291.91 2130.66C3285.16 2141.67 3275.69 2150.76 3264.41 2157.07C3253.13 2163.38 3240.41 2166.7 3227.47 2166.7ZM3227.47 2071.52C3232.75 2071.52 3237.8 2073.61 3241.53 2077.33C3245.26 2081.05 3247.35 2086.09 3247.35 2091.35C3247.35 2096.61 3245.26 2101.65 3241.53 2105.37C3237.8 2109.09 3232.75 2111.18 3227.47 2111.18C3222.2 2111.18 3217.15 2109.09 3213.42 2105.37C3209.69 2101.65 3207.59 2096.61 3207.59 2091.35C3207.59 2086.09 3209.69 2081.05 3213.42 2077.33C3217.15 2073.61 3222.2 2071.52 3227.47 2071.52ZM3052.53 2071.52C3057.81 2071.52 3062.86 2073.61 3066.59 2077.33C3070.32 2081.05 3072.41 2086.09 3072.41 2091.35C3072.41 2096.61 3070.32 2101.65 3066.59 2105.37C3062.86 2109.09 3057.81 2111.18 3052.53 2111.18C3047.26 2111.18 3042.21 2109.09 3038.48 2105.37C3034.75 2101.65 3032.66 2096.61 3032.66 2091.35C3032.66 2086.09 3034.75 2081.05 3038.48 2077.33C3042.21 2073.61 3047.26 2071.52 3052.53 2071.52Z" fill="#FF9600"/>
</svg>
