<svg width="20" height="20" viewBox="0 0 20 20" fill="none" xmlns="http://www.w3.org/2000/svg">
<path fill-rule="evenodd" clip-rule="evenodd" d="M17.1614 0.209133C17.0275 0.0752253 16.8458 0 16.6564 0C16.467 0 16.2854 0.0752253 16.1514 0.209133L9.43714 6.9377C9.32776 7.04751 9.25706 7.18991 9.23572 7.34342L8.80714 10.3863C8.79182 10.4955 8.80198 10.6067 8.83684 10.7114C8.8717 10.816 8.93031 10.9111 9.00808 10.9893C9.08584 11.0675 9.18065 11.1266 9.28508 11.162C9.38951 11.1974 9.50072 11.2082 9.61 11.1934L12.6529 10.7791C12.8074 10.7584 12.9509 10.6876 13.0614 10.5777L19.79 3.84913C19.8565 3.78278 19.9093 3.70396 19.9453 3.61718C19.9813 3.5304 19.9999 3.43737 19.9999 3.34342C19.9999 3.24947 19.9813 3.15644 19.9453 3.06966C19.9093 2.98288 19.8565 2.90406 19.79 2.8377L17.1614 0.209133ZM1.82286 2.32199C1.82286 2.02628 2.06286 1.78628 2.35857 1.78628H12.18C12.4168 1.78628 12.6439 1.69221 12.8113 1.52476C12.9788 1.35732 13.0729 1.13022 13.0729 0.893419C13.0729 0.656618 12.9788 0.429517 12.8113 0.262074C12.6439 0.0946304 12.4168 0.000561753 12.18 0.000561753H2.35857C1.07714 0.000561753 0.0371428 1.04056 0.0371428 2.32199V17.6791C0.0371428 18.962 1.07714 20.0006 2.35857 20.0006H15.2157C16.4986 20.0006 17.5371 18.962 17.5371 17.6791V10.8934C17.5371 10.6566 17.4431 10.4295 17.2756 10.2621C17.1082 10.0946 16.8811 10.0006 16.6443 10.0006C16.4075 10.0006 16.1804 10.0946 16.0129 10.2621C15.8455 10.4295 15.7514 10.6566 15.7514 10.8934V15.012H1.82286V2.32199ZM4.32286 4.28628C4.32286 3.79342 4.72286 3.39342 5.21571 3.39342H8.07286C8.30966 3.39342 8.53676 3.48749 8.7042 3.65493C8.87165 3.82237 8.96572 4.04948 8.96572 4.28628C8.96572 4.52308 8.87165 4.75018 8.7042 4.91762C8.53676 5.08506 8.30966 5.17913 8.07286 5.17913H5.21571C4.97891 5.17913 4.75181 5.08506 4.58437 4.91762C4.41693 4.75018 4.32286 4.52308 4.32286 4.28628ZM5.21571 6.96485C4.97891 6.96485 4.75181 7.05892 4.58437 7.22636C4.41693 7.3938 4.32286 7.6209 4.32286 7.8577C4.32286 8.0945 4.41693 8.32161 4.58437 8.48905C4.75181 8.65649 4.97891 8.75056 5.21571 8.75056H6.64429C6.88109 8.75056 7.10819 8.65649 7.27563 8.48905C7.44307 8.32161 7.53714 8.0945 7.53714 7.8577C7.53714 7.6209 7.44307 7.3938 7.27563 7.22636C7.10819 7.05892 6.88109 6.96485 6.64429 6.96485H5.21571Z" fill="#FF7D7D"/>
</svg>
